Land_normalized_Motion_pl08
version=1
nRows=23
nColumns=43
inDegrees=yes
endheader
time		pelvis_tilt		pelvis_list		pelvis_rotation		pelvis_tx		pelvis_ty		pelvis_tz		hip_flexion_r		hip_adduction_r		hip_rotation_r		knee_angle_r		ankle_angle_r		subtalar_angle_r		mtp_angle_r		hip_flexion_l		hip_adduction_l		hip_rotation_l		knee_angle_l		ankle_angle_l		subtalar_angle_l		mtp_angle_l		lumbar_extension		lumbar_bending		lumbar_rotation		neck_flexion		neck_lateral_bending		neck_rotation		arm_flex_r		arm_add_r		arm_rot_r		elbow_flex_r		pro_sup_r		wrist_flex_r		wrist_dev_r		hand_finger_flex_r		arm_flex_l		arm_add_l		arm_rot_l		elbow_flex_l		pro_sup_l		wrist_flex_l		wrist_dev_l		hand_finger_flex_l		
1.907500		-3.009458		20.177425		93.918734		-0.020700		0.672615		0.467706		45.817360		-5.592843		-2.507073		-99.850209		13.148283		-10.634110		14.307067		40.427124		3.283855		-4.357870		-92.728429		24.523181		-20.148968		14.553918		-59.357507		-2.743438		-6.334920		-4.080991		3.183071		-1.518393		-2.474203		-38.742198		-1.807331		73.927647		91.727514		-29.199930		3.602330		45.286503		-2.349873		-37.062403		-9.651706		67.523443		122.835071		-17.495247		11.459889		90.000210		
1.910227		-3.046587		20.307162		93.949123		-0.020968		0.666085		0.466945		46.815906		-5.592168		-2.198871		-101.432939		12.618179		-10.401182		14.444590		41.195120		3.344865		-4.317810		-94.289846		24.634982		-19.939475		14.607197		-60.121062		-2.704151		-6.239912		-3.158029		3.309251		-1.731631		0.462569		-39.170166		-0.426082		73.739856		92.376103		-29.177326		3.687071		45.128650		0.627169		-37.196488		-8.538158		67.524014		123.489931		-17.355732		11.443551		90.000210		
1.912955		-3.056668		20.118054		93.915357		-0.021062		0.659098		0.466083		48.171759		-5.502521		-1.809790		-102.969771		12.115896		-10.161074		14.952636		42.338018		3.330576		-4.329932		-95.856584		24.780229		-19.593104		14.791612		-60.461492		-2.735684		-6.187273		-2.598796		3.432010		-1.857259		3.577154		-39.382170		1.114183		73.321339		93.481596		-29.483434		3.852387		44.817930		3.496369		-37.099273		-7.743839		67.553998		124.838774		-17.172777		11.924806		90.000210		
1.915682		-3.030571		20.040646		93.918604		-0.021218		0.652404		0.465317		49.362463		-5.421175		-1.462421		-104.431579		11.571377		-9.785652		15.576568		43.380503		3.300352		-4.284863		-97.414334		24.734957		-19.301886		15.062208		-60.947691		-2.702441		-6.141151		-1.858242		3.592567		-1.964913		6.662361		-39.625725		2.609333		73.028968		94.341337		-29.458177		3.948283		44.644251		6.258540		-37.012416		-6.996141		67.786336		126.023997		-16.935428		12.393488		90.000210		
1.918409		-2.986097		20.020523		93.942452		-0.021373		0.645933		0.464617		50.444555		-5.330135		-1.138789		-105.820552		11.052613		-9.355781		16.120454		44.369546		3.255043		-4.226805		-98.945968		24.576387		-19.021742		15.338735		-61.497952		-2.642489		-6.057571		-1.073235		3.779859		-2.095170		9.673747		-39.866422		4.017503		72.828656		95.029119		-29.317769		4.010831		44.509602		9.017064		-36.928659		-6.177206		68.087086		126.920671		-16.734600		12.692080		90.000210		
1.921136		-2.901121		19.944720		93.956641		-0.021480		0.639429		0.463896		51.561067		-5.204677		-0.833703		-107.160414		10.606043		-8.855432		16.706045		45.435419		3.169342		-4.163181		-100.477289		24.369843		-18.750384		15.680193		-61.951002		-2.566768		-5.960750		-0.375139		3.960488		-2.202708		12.710200		-40.039836		5.465771		72.601188		95.656884		-29.188681		4.083828		44.392259		11.742020		-36.804065		-5.367443		68.381977		127.700072		-16.580706		13.002154		90.000210		
1.923864		-2.803555		19.838711		93.963641		-0.021582		0.632969		0.463171		52.681032		-5.063675		-0.530519		-108.441361		10.187717		-8.327943		17.387343		46.540836		3.061314		-4.103490		-101.992619		24.110715		-18.488219		16.084214		-62.342056		-2.490318		-5.859934		0.248954		4.121634		-2.298059		15.794267		-40.177718		6.961302		72.319335		96.251900		-29.060504		4.163876		44.311745		14.434296		-36.629000		-4.543889		68.711255		128.436871		-16.422695		13.342559		90.000210		
1.926591		-2.689852		19.747418		93.960863		-0.021660		0.626610		0.462456		53.749517		-4.899783		-0.240848		-109.671928		9.820639		-7.733002		18.148653		47.636794		2.929993		-4.045549		-103.491712		23.794522		-18.295469		16.557789		-62.723497		-2.405349		-5.758935		0.802314		4.240238		-2.384440		18.921173		-40.282023		8.513631		72.009828		96.683643		-28.937569		4.239887		44.362652		17.092587		-36.449162		-3.676937		69.027938		128.917152		-16.255308		13.654038		90.000210		
1.929318		-2.611335		19.733178		93.966139		-0.021801		0.620531		0.461750		54.694066		-4.772081		0.054870		-110.852801		9.453401		-7.207530		18.722985		48.629466		2.837078		-4.009119		-104.953095		23.400202		-18.086956		16.917943		-63.211358		-2.339132		-5.636675		1.483583		4.414584		-2.511637		21.932507		-40.418354		9.941792		71.827433		97.041080		-28.737278		4.275064		44.461598		19.759706		-36.253869		-2.749635		69.407848		129.259147		-16.098541		13.800241		90.000210		
1.932045		-2.544532		19.753008		93.945310		-0.021917		0.614629		0.461038		55.563092		-4.633818		0.359330		-111.982620		9.145883		-6.682157		19.108183		49.569673		2.746429		-3.995147		-106.379674		22.990654		-17.902583		17.156720		-63.712864		-2.294806		-5.480791		2.119460		4.568513		-2.692518		24.921545		-40.541725		11.337309		71.652247		97.357645		-28.459240		4.320024		44.590036		22.471306		-36.040021		-1.688854		69.710650		129.476726		-15.909917		13.838936		90.000210		
1.934773		-2.520266		19.636786		93.931269		-0.022089		0.608515		0.460258		56.577628		-4.547194		0.715033		-113.076847		8.641173		-6.150870		22.167608		50.642216		2.707788		-4.008614		-107.721166		22.372502		-18.074465		19.331764		-64.010463		-2.251668		-5.689945		2.508595		4.536775		-2.459096		28.565427		-40.420673		13.768457		70.978152		97.150077		-29.481779		4.167236		45.858486		24.704090		-35.888379		-1.209815		70.286916		129.489721		-15.421514		14.726696		90.000210		
1.937500		-2.464664		19.623082		93.871213		-0.022137		0.602780		0.459511		57.420077		-4.385008		1.003849		-114.136629		8.459856		-5.663614		22.587539		51.579096		2.620712		-3.996034		-109.047892		21.926693		-17.920641		19.622324		-64.452643		-2.255752		-5.473551		3.099465		4.638626		-2.651057		31.414647		-40.474349		15.014850		70.838245		97.455722		-29.230989		4.206886		46.090788		27.433026		-35.599901		-0.047447		70.561729		129.626274		-15.184057		14.627495		90.000210		
1.940227		-2.423448		19.552208		93.806992		-0.022267		0.597040		0.458715		58.290876		-4.252364		1.282523		-115.163170		8.403313		-5.183972		22.768241		52.548983		2.578545		-3.984482		-110.317474		21.560868		-17.812603		19.746406		-64.793393		-2.264553		-5.281547		3.553023		4.698112		-2.861385		34.273559		-40.448288		16.251180		70.634429		97.792083		-28.927696		4.311809		46.181600		30.154016		-35.257315		1.155441		70.728189		129.686053		-14.890676		14.574701		90.000210		
1.942955		-2.411687		19.431100		93.767058		-0.022426		0.591290		0.457894		59.184021		-4.159842		1.550863		-116.165660		8.413564		-4.738033		22.986829		53.548794		2.583189		-3.972874		-111.524188		21.199573		-17.746555		19.909367		-65.064770		-2.274316		-5.139846		3.946216		4.723808		-3.018417		37.141129		-40.377932		17.556029		70.387665		98.087812		-28.707619		4.423194		46.242420		32.805957		-34.903749		2.339464		70.920035		129.689099		-14.522726		14.609436		90.000210		
1.945682		-2.419485		19.274693		93.755400		-0.022695		0.585607		0.457070		60.074539		-4.115761		1.795677		-117.129198		8.482303		-4.360872		23.219023		54.555496		2.638683		-3.971022		-112.669751		20.857060		-17.703772		20.099821		-65.293269		-2.265790		-5.047466		4.321940		4.748027		-3.140336		39.990637		-40.256965		18.875763		70.136848		98.334851		-28.553411		4.517223		46.262496		35.409058		-34.535786		3.509602		71.108886		129.675989		-14.100551		14.685279		90.000210		
1.948409		-2.441964		19.080730		93.776463		-0.023046		0.579936		0.456234		60.975780		-4.122959		2.010753		-118.069487		8.605885		-4.036212		23.467354		55.573431		2.730289		-3.975735		-113.760702		20.544027		-17.683048		20.326592		-65.463448		-2.239023		-4.985386		4.629913		4.748312		-3.234996		42.818402		-40.111664		20.239164		69.857230		98.528418		-28.464373		4.593054		46.238267		37.969960		-34.159757		4.707837		71.301940		129.647684		-13.610899		14.793643		90.000210		
1.951136		-2.472201		18.862931		93.828794		-0.023502		0.574323		0.455406		61.862681		-4.177882		2.194353		-118.972746		8.778952		-3.782052		23.715693		56.591310		2.842311		-3.999093		-114.804470		20.274493		-17.664534		20.579663		-65.597593		-2.183987		-4.954801		4.917114		4.749252		-3.308147		45.613557		-39.931912		21.605885		69.574269		98.664137		-28.426644		4.631366		46.170268		40.492574		-33.777301		5.922230		71.480066		129.616260		-13.081873		14.909433		90.000210		
1.953864		-2.507858		18.632102		93.906535		-0.024015		0.568804		0.454595		62.725667		-4.273612		2.340931		-119.837127		8.993251		-3.600662		23.954177		57.589994		2.951709		-4.045280		-115.799351		20.065155		-17.636749		20.854695		-65.709611		-2.106101		-4.945592		5.176355		4.744068		-3.365404		48.368957		-39.713989		22.958485		69.286255		98.741166		-28.433158		4.623941		46.061541		42.982100		-33.391154		7.152709		71.644741		129.577990		-12.535973		15.022864		90.000210		
1.956591		-2.544232		18.400302		94.000157		-0.024538		0.563400		0.453767		63.552950		-4.391849		2.450073		-120.670028		9.243956		-3.497418		24.172027		58.549639		3.043166		-4.119611		-116.752047		19.918255		-17.582969		21.140190		-65.810884		-2.018642		-4.949362		5.423434		4.735860		-3.412572		51.068744		-39.463695		24.293477		68.991060		98.779014		-28.459430		4.572040		45.926982		45.438262		-33.006412		8.417718		71.798487		129.538380		-12.007140		15.121716		90.000210		
1.959318		-2.579872		18.175854		94.091689		-0.025065		0.558126		0.452951		64.342848		-4.523040		2.526658		-121.468643		9.524989		-3.477069		24.358876		59.466455		3.102831		-4.221174		-117.669126		19.835507		-17.491157		21.425021		-65.914070		-1.930089		-4.959240		5.663810		4.728386		-3.458096		53.723302		-39.177555		25.596605		68.695826		98.800345		-28.489412		4.479352		45.779673		47.872773		-32.631970		9.725935		71.928279		129.503553		-11.534614		15.201259		90.000210		
1.962045		-2.618309		17.956380		94.180947		-0.025499		0.552990		0.452156		65.096339		-4.650857		2.572165		-122.228236		9.827507		-3.535470		24.513022		60.344501		3.119736		-4.342392		-118.542280		19.811538		-17.360954		21.706424		-66.019934		-1.849031		-4.976305		5.900235		4.716442		-3.502641		56.322194		-38.846168		26.851133		68.403051		98.815408		-28.527664		4.352379		45.628334		50.289187		-32.268493		11.055302		72.038649		129.471718		-11.152658		15.268111		90.000210		
1.964773		-2.660600		17.739215		94.251923		-0.025839		0.547945		0.451364		65.843558		-4.788795		2.573106		-122.973655		10.138105		-3.668578		24.638958		61.189443		3.105936		-4.468911		-119.379475		19.829319		-17.185532		22.000023		-66.121717		-1.796841		-4.991652		6.122147		4.688593		-3.545071		58.878492		-38.488852		28.101210		68.088539		98.818152		-28.592956		4.191289		45.472654		52.684708		-31.923450		12.434521		72.140220		129.433557		-10.878395		15.340218		90.000210		
1.967500		-2.704169		17.516816		94.302653		-0.026111		0.542996		0.450583		66.586735		-4.931601		2.542766		-123.695456		10.449692		-3.877589		24.736063		62.017652		3.068766		-4.593670		-120.185025		19.879149		-16.971796		22.308976		-66.218704		-1.763258		-5.008748		6.356246		4.653078		-3.583380		61.394180		-38.092532		29.324963		67.767424		98.803288		-28.696254		3.994670		45.318941		55.051189		-31.593807		13.835857		72.229597		129.398209		-10.750430		15.421817		90.000210		
